<svg xmlns="http://www.w3.org/2000/svg" viewBox="0 0 1920 1080"><defs><style>.cls-1{isolation:isolate;}.cls-2{opacity:0.1;mix-blend-mode:overlay;}.cls-3{fill:none;stroke:#fff;stroke-linecap:round;stroke-miterlimit:10;stroke-width:10.6px;}</style></defs><title>Монтажная область 52</title><g class="cls-1"><g id="Layer_1" data-name="Layer 1"><g class="cls-2"><line class="cls-3" x1="1231" y1="596.63" x2="1231" y2="518.11"/><line class="cls-3" x1="1231" y1="422.46" x2="1231" y2="383.2"/><line class="cls-3" x1="1231" y1="876.46" x2="1231" y2="715.15"/><line class="cls-3" x1="1231" y1="1078.98" x2="1231" y2="917.43"/><line class="cls-3" x1="1201.33" y1="438.44" x2="1201.33" y2="327.52"/><line class="cls-3" x1="1201.33" y1="1078.98" x2="1201.33" y2="871.29"/><line class="cls-3" x1="1201.33" y1="780.2" x2="1201.33" y2="504.11"/><line class="cls-3" x1="1201.33" y1="1078.98" x2="1201.33" y2="1078.98"/><line class="cls-3" x1="1165.3" y1="731.95" x2="1165.3" y2="631.28"/><line class="cls-3" x1="1165.3" y1="300.08" x2="1165.3" y2="359.49"/><line class="cls-3" x1="1164.77" y1="579.17" x2="1164.77" y2="417.86"/><line class="cls-3" x1="1165.3" y1="1078.98" x2="1165.3" y2="771.69"/><line class="cls-3" x1="1135.63" y1="399.94" x2="1135.63" y2="321.42"/><line class="cls-3" x1="1135.63" y1="269.48" x2="1135.63" y2="230.22"/><line class="cls-3" x1="1135.63" y1="1078.98" x2="1135.63" y2="873.62"/><line class="cls-3" x1="1135.63" y1="825.73" x2="1135.63" y2="442.61"/><line class="cls-3" x1="1012.19" y1="833.19" x2="1012.19" y2="911.71"/><line class="cls-3" x1="1012.19" y1="992.79" x2="1012.19" y2="1078.98"/><line class="cls-3" x1="1012.19" y1="593.37" x2="1012.19" y2="754.67"/><line class="cls-3" x1="1012.19" y1="207.59" x2="1012.19" y2="552.4"/><line class="cls-3" x1="1041.86" y1="954.39" x2="1041.86" y2="1078.98"/><line class="cls-3" x1="1041.86" y1="319.4" x2="1041.86" y2="480.71"/><line class="cls-3" x1="1041.86" y1="566.91" x2="1041.86" y2="911.71"/><line class="cls-3" x1="1041.86" y1="195.64" x2="1041.86" y2="274.16"/><line class="cls-3" x1="1077.88" y1="658" x2="1077.88" y2="736.52"/><line class="cls-3" x1="1078.41" y1="839.79" x2="1078.41" y2="1078.98"/><line class="cls-3" x1="1077.88" y1="272.23" x2="1077.88" y2="617.04"/><line class="cls-3" x1="1077.88" y1="166.64" x2="1077.88" y2="245.16"/><line class="cls-3" x1="1107.55" y1="920.02" x2="1107.55" y2="1078.98"/><line class="cls-3" x1="1107.55" y1="285.03" x2="1107.55" y2="446.34"/><line class="cls-3" x1="1107.55" y1="479.76" x2="1107.55" y2="877.35"/><line class="cls-3" x1="1041.86" y1="394.5" x2="1041.86" y2="315.98"/><line class="cls-3" x1="1041.86" y1="234.9" x2="1041.86" y2="195.64"/><line class="cls-3" x1="1041.86" y1="634.33" x2="1041.86" y2="473.03"/><line class="cls-3" x1="1041.86" y1="1078.98" x2="1041.86" y2="675.3"/><line class="cls-3" x1="1012.19" y1="273.31" x2="1012.19" y2="194.79"/><line class="cls-3" x1="1012.19" y1="141.26" x2="1012.19" y2="102"/><line class="cls-3" x1="1012.19" y1="908.3" x2="1012.19" y2="746.99"/><line class="cls-3" x1="1012.19" y1="660.79" x2="1012.19" y2="315.98"/><line class="cls-3" x1="1012.19" y1="1078.98" x2="1012.19" y2="953.53"/><line class="cls-3" x1="976.16" y1="634.33" x2="976.16" y2="555.81"/><line class="cls-3" x1="976.16" y1="173.45" x2="976.16" y2="134.19"/><line class="cls-3" x1="975.63" y1="452.54" x2="975.63" y2="291.23"/><line class="cls-3" x1="976.16" y1="1078.98" x2="976.16" y2="675.3"/><line class="cls-3" x1="1517" y1="770.22" x2="1517" y2="715.41"/><line class="cls-3" x1="1517" y1="620.72" x2="1517" y2="593.32"/><line class="cls-3" x1="1517" y1="937.62" x2="1517" y2="825.02"/><line class="cls-3" x1="1517" y1="1078.98" x2="1517" y2="966.21"/><line class="cls-3" x1="1487.33" y1="664.62" x2="1487.33" y2="587.2"/><line class="cls-3" x1="1487.33" y1="1078.98" x2="1487.33" y2="934.01"/><line class="cls-3" x1="1487.33" y1="908.12" x2="1487.33" y2="715.41"/><line class="cls-3" x1="1487.33" y1="1078.98" x2="1487.33" y2="1078.98"/><line class="cls-3" x1="1451.3" y1="836.75" x2="1451.3" y2="766.48"/><line class="cls-3" x1="1451.3" y1="535.3" x2="1451.3" y2="576.77"/><line class="cls-3" x1="1450.77" y1="730.11" x2="1450.77" y2="617.51"/><line class="cls-3" x1="1451.3" y1="1078.98" x2="1451.3" y2="864.49"/><line class="cls-3" x1="1421.63" y1="528" x2="1421.63" y2="473.19"/><line class="cls-3" x1="1421.63" y1="436.94" x2="1421.63" y2="409.53"/><line class="cls-3" x1="1421.63" y1="1078.98" x2="1421.63" y2="935.64"/><line class="cls-3" x1="1421.63" y1="902.21" x2="1421.63" y2="634.79"/><line class="cls-3" x1="1298.19" y1="907.42" x2="1298.19" y2="962.23"/><line class="cls-3" x1="1298.19" y1="1018.82" x2="1298.19" y2="1078.98"/><line class="cls-3" x1="1298.19" y1="740.02" x2="1298.19" y2="852.61"/><line class="cls-3" x1="1298.19" y1="470.74" x2="1298.19" y2="711.42"/><line class="cls-3" x1="1327.86" y1="992.01" x2="1327.86" y2="1078.98"/><line class="cls-3" x1="1327.86" y1="548.79" x2="1327.86" y2="661.38"/><line class="cls-3" x1="1327.86" y1="721.55" x2="1327.86" y2="962.23"/><line class="cls-3" x1="1327.86" y1="462.4" x2="1327.86" y2="517.21"/><line class="cls-3" x1="1363.88" y1="785.13" x2="1363.88" y2="839.94"/><line class="cls-3" x1="1364.41" y1="912.03" x2="1364.41" y2="1078.98"/><line class="cls-3" x1="1363.88" y1="515.86" x2="1363.88" y2="756.54"/><line class="cls-3" x1="1363.88" y1="442.16" x2="1363.88" y2="496.96"/><line class="cls-3" x1="1393.55" y1="968.03" x2="1393.55" y2="1078.98"/><line class="cls-3" x1="1393.55" y1="524.8" x2="1393.55" y2="637.39"/><line class="cls-3" x1="1393.55" y1="660.72" x2="1393.55" y2="938.24"/><line class="cls-3" x1="1327.86" y1="601.21" x2="1327.86" y2="546.4"/><line class="cls-3" x1="1327.86" y1="412.81" x2="1327.86" y2="385.4"/><line class="cls-3" x1="1327.86" y1="768.61" x2="1327.86" y2="656.02"/><line class="cls-3" x1="1327.86" y1="1078.98" x2="1327.86" y2="797.21"/><line class="cls-3" x1="1298.19" y1="516.62" x2="1298.19" y2="461.81"/><line class="cls-3" x1="1298.19" y1="424.44" x2="1298.19" y2="397.04"/><line class="cls-3" x1="1298.19" y1="959.84" x2="1298.19" y2="847.25"/><line class="cls-3" x1="1298.19" y1="787.08" x2="1298.19" y2="546.4"/><line class="cls-3" x1="1298.19" y1="1078.98" x2="1298.19" y2="991.42"/><line class="cls-3" x1="1262.16" y1="768.61" x2="1262.16" y2="713.8"/><line class="cls-3" x1="1262.16" y1="369.91" x2="1262.16" y2="342.51"/><line class="cls-3" x1="1261.63" y1="641.72" x2="1261.63" y2="529.13"/><line class="cls-3" x1="1262.16" y1="1078.98" x2="1262.16" y2="797.21"/><line class="cls-3" x1="1801" y1="849.91" x2="1801" y2="812.62"/><line class="cls-3" x1="1801" y1="767.19" x2="1801" y2="748.54"/><line class="cls-3" x1="1801" y1="982.8" x2="1801" y2="906.19"/><line class="cls-3" x1="1801" y1="1078.98" x2="1801" y2="1002.25"/><line class="cls-3" x1="1771.33" y1="774.78" x2="1771.33" y2="722.1"/><line class="cls-3" x1="1771.33" y1="1078.98" x2="1771.33" y2="980.34"/><line class="cls-3" x1="1771.33" y1="937.09" x2="1771.33" y2="805.97"/><line class="cls-3" x1="1771.33" y1="1078.98" x2="1771.33" y2="1078.98"/><line class="cls-3" x1="1735.3" y1="914.17" x2="1735.3" y2="866.36"/><line class="cls-3" x1="1735.3" y1="709.07" x2="1735.3" y2="737.28"/><line class="cls-3" x1="1734.77" y1="841.61" x2="1734.77" y2="765.01"/><line class="cls-3" x1="1735.3" y1="1078.98" x2="1735.3" y2="933.04"/><line class="cls-3" x1="1705.63" y1="756.49" x2="1705.63" y2="719.2"/><line class="cls-3" x1="1705.63" y1="694.54" x2="1705.63" y2="675.89"/><line class="cls-3" x1="1705.63" y1="1078.98" x2="1705.63" y2="981.45"/><line class="cls-3" x1="1705.63" y1="958.71" x2="1705.63" y2="776.76"/><line class="cls-3" x1="1582.19" y1="962.25" x2="1582.19" y2="999.54"/><line class="cls-3" x1="1582.19" y1="1038.05" x2="1582.19" y2="1078.98"/><line class="cls-3" x1="1582.19" y1="848.36" x2="1582.19" y2="924.96"/><line class="cls-3" x1="1582.19" y1="665.15" x2="1582.19" y2="828.9"/><line class="cls-3" x1="1611.86" y1="1019.81" x2="1611.86" y2="1078.98"/><line class="cls-3" x1="1611.86" y1="718.24" x2="1611.86" y2="794.85"/><line class="cls-3" x1="1611.86" y1="835.79" x2="1611.86" y2="999.54"/><line class="cls-3" x1="1611.86" y1="659.47" x2="1611.86" y2="696.76"/><line class="cls-3" x1="1647.88" y1="879.05" x2="1647.88" y2="916.34"/><line class="cls-3" x1="1648.41" y1="965.39" x2="1648.41" y2="1078.98"/><line class="cls-3" x1="1647.88" y1="695.84" x2="1647.88" y2="859.6"/><line class="cls-3" x1="1647.88" y1="645.7" x2="1647.88" y2="682.99"/><line class="cls-3" x1="1677.55" y1="1003.49" x2="1677.55" y2="1078.98"/><line class="cls-3" x1="1677.55" y1="701.92" x2="1677.55" y2="778.53"/><line class="cls-3" x1="1677.55" y1="794.4" x2="1677.55" y2="983.22"/><line class="cls-3" x1="1611.86" y1="753.91" x2="1611.86" y2="716.62"/><line class="cls-3" x1="1611.86" y1="678.12" x2="1611.86" y2="659.47"/><line class="cls-3" x1="1611.86" y1="867.81" x2="1611.86" y2="791.2"/><line class="cls-3" x1="1611.86" y1="1078.98" x2="1611.86" y2="887.27"/><line class="cls-3" x1="1582.19" y1="696.36" x2="1582.19" y2="659.07"/><line class="cls-3" x1="1582.19" y1="633.65" x2="1582.19" y2="615"/><line class="cls-3" x1="1582.19" y1="997.92" x2="1582.19" y2="921.31"/><line class="cls-3" x1="1582.19" y1="880.38" x2="1582.19" y2="716.62"/><line class="cls-3" x1="1582.19" y1="1078.98" x2="1582.19" y2="1019.4"/><line class="cls-3" x1="1546.16" y1="867.81" x2="1546.16" y2="830.52"/><line class="cls-3" x1="1546.16" y1="648.93" x2="1546.16" y2="630.29"/><line class="cls-3" x1="1545.63" y1="781.48" x2="1545.63" y2="704.87"/><line class="cls-3" x1="1546.16" y1="1078.98" x2="1546.16" y2="887.27"/><line class="cls-3" x1="1868.19" y1="997.5" x2="1868.19" y2="1023.53"/><line class="cls-3" x1="1868.19" y1="1050.41" x2="1868.19" y2="1078.98"/><line class="cls-3" x1="1868.19" y1="918" x2="1868.19" y2="971.47"/><line class="cls-3" x1="1868.19" y1="790.12" x2="1868.19" y2="904.42"/><line class="cls-3" x1="1897.86" y1="1037.68" x2="1897.86" y2="1078.98"/><line class="cls-3" x1="1897.86" y1="827.18" x2="1897.86" y2="880.66"/><line class="cls-3" x1="1897.86" y1="909.23" x2="1897.86" y2="1023.53"/><line class="cls-3" x1="1897.86" y1="786.16" x2="1897.86" y2="812.19"/><line class="cls-3" x1="1897.86" y1="852.08" x2="1897.86" y2="826.05"/><line class="cls-3" x1="1897.86" y1="762.61" x2="1897.86" y2="749.59"/><line class="cls-3" x1="1897.86" y1="931.58" x2="1897.86" y2="878.11"/><line class="cls-3" x1="1897.86" y1="1078.98" x2="1897.86" y2="945.16"/><line class="cls-3" x1="1868.19" y1="811.91" x2="1868.19" y2="785.88"/><line class="cls-3" x1="1868.19" y1="768.13" x2="1868.19" y2="755.12"/><line class="cls-3" x1="1868.19" y1="1022.4" x2="1868.19" y2="968.93"/><line class="cls-3" x1="1868.19" y1="940.35" x2="1868.19" y2="826.05"/><line class="cls-3" x1="1868.19" y1="1078.98" x2="1868.19" y2="1037.39"/><line class="cls-3" x1="1832.16" y1="931.58" x2="1832.16" y2="905.55"/><line class="cls-3" x1="1832.16" y1="742.24" x2="1832.16" y2="729.22"/><line class="cls-3" x1="1831.63" y1="871.32" x2="1831.63" y2="817.85"/><line class="cls-3" x1="1832.16" y1="1078.98" x2="1832.16" y2="945.16"/><line class="cls-3" x1="946.49" y1="273.31" x2="946.49" y2="194.79"/><line class="cls-3" x1="946.49" y1="141.26" x2="946.49" y2="102"/><line class="cls-3" x1="946.49" y1="908.3" x2="946.49" y2="746.99"/><line class="cls-3" x1="946.49" y1="660.79" x2="946.49" y2="315.98"/><line class="cls-3" x1="946.49" y1="1078.98" x2="946.49" y2="953.53"/><line class="cls-3" x1="823.04" y1="897.83" x2="823.04" y2="1078.98"/><line class="cls-3" x1="823.04" y1="658" x2="823.04" y2="819.31"/><line class="cls-3" x1="823.04" y1="186.4" x2="823.04" y2="531.21"/><line class="cls-3" x1="852.71" y1="1019.03" x2="852.71" y2="1078.98"/><line class="cls-3" x1="852.71" y1="384.04" x2="852.71" y2="545.34"/><line class="cls-3" x1="852.71" y1="631.55" x2="852.71" y2="1078.98"/><line class="cls-3" x1="852.71" y1="260.28" x2="852.71" y2="338.8"/><line class="cls-3" x1="888.74" y1="658" x2="888.74" y2="736.52"/><line class="cls-3" x1="889.27" y1="839.79" x2="889.27" y2="1078.98"/><line class="cls-3" x1="888.74" y1="272.23" x2="888.74" y2="617.04"/><line class="cls-3" x1="888.74" y1="139.09" x2="888.74" y2="217.61"/><line class="cls-3" x1="918.41" y1="855.38" x2="918.41" y2="1078.98"/><line class="cls-3" x1="918.41" y1="157.88" x2="918.41" y2="319.18"/><line class="cls-3" x1="918.41" y1="467.9" x2="918.41" y2="812.71"/><line class="cls-3" x1="784.37" y1="521.13" x2="784.37" y2="442.61"/><line class="cls-3" x1="784.37" y1="361.53" x2="784.37" y2="322.27"/><line class="cls-3" x1="784.37" y1="661.35" x2="784.37" y2="559.76"/><line class="cls-3" x1="784.37" y1="1078.98" x2="784.37" y2="702.32"/><line class="cls-3" x1="754.7" y1="399.94" x2="754.7" y2="321.42"/><line class="cls-3" x1="754.7" y1="267.89" x2="754.7" y2="228.63"/><line class="cls-3" x1="754.7" y1="1078.98" x2="754.7" y2="825.73"/><line class="cls-3" x1="754.7" y1="787.42" x2="754.7" y2="442.61"/><line class="cls-3" x1="718.67" y1="876.46" x2="718.67" y2="660.95"/><line class="cls-3" x1="718.67" y1="338.58" x2="718.67" y2="299.32"/><line class="cls-3" x1="718.14" y1="626.32" x2="718.14" y2="465.01"/><line class="cls-3" x1="718.67" y1="1078.98" x2="718.67" y2="903.12"/><line class="cls-3" x1="689" y1="438.44" x2="689" y2="359.92"/><line class="cls-3" x1="689" y1="1078.98" x2="689" y2="989.12"/><line class="cls-3" x1="689" y1="945.99" x2="689" y2="558.11"/><line class="cls-3" x1="659.16" y1="759.89" x2="659.16" y2="703.55"/><line class="cls-3" x1="659.16" y1="352.16" x2="659.16" y2="323.99"/><line class="cls-3" x1="658.63" y1="552.44" x2="658.63" y2="436.68"/><line class="cls-3" x1="659.16" y1="1078.98" x2="659.16" y2="789.29"/><line class="cls-3" x1="629.49" y1="500.82" x2="629.49" y2="444.47"/><line class="cls-3" x1="629.49" y1="329.06" x2="629.49" y2="300.89"/><line class="cls-3" x1="629.49" y1="956.5" x2="629.49" y2="840.74"/><line class="cls-3" x1="629.49" y1="778.88" x2="629.49" y2="531.44"/><line class="cls-3" x1="629.49" y1="1078.98" x2="629.49" y2="988.96"/><line class="cls-3" x1="506.04" y1="948.98" x2="506.04" y2="1078.98"/><line class="cls-3" x1="506.04" y1="776.88" x2="506.04" y2="892.64"/><line class="cls-3" x1="506.04" y1="438.45" x2="506.04" y2="685.89"/><line class="cls-3" x1="535.71" y1="1035.96" x2="535.71" y2="1078.98"/><line class="cls-3" x1="535.71" y1="580.28" x2="535.71" y2="696.03"/><line class="cls-3" x1="535.71" y1="757.89" x2="535.71" y2="1078.98"/><line class="cls-3" x1="535.71" y1="414.47" x2="535.71" y2="470.82"/><line class="cls-3" x1="571.74" y1="776.88" x2="571.74" y2="833.23"/><line class="cls-3" x1="572.27" y1="907.34" x2="572.27" y2="1078.98"/><line class="cls-3" x1="571.74" y1="500.04" x2="571.74" y2="747.48"/><line class="cls-3" x1="571.74" y1="404.5" x2="571.74" y2="460.85"/><line class="cls-3" x1="601.41" y1="918.52" x2="601.41" y2="1078.98"/><line class="cls-3" x1="601.41" y1="417.98" x2="601.41" y2="533.74"/><line class="cls-3" x1="601.41" y1="640.46" x2="601.41" y2="887.9"/><line class="cls-3" x1="467.37" y1="678.66" x2="467.37" y2="622.31"/><line class="cls-3" x1="467.37" y1="487.13" x2="467.37" y2="458.95"/><line class="cls-3" x1="467.37" y1="779.28" x2="467.37" y2="706.38"/><line class="cls-3" x1="467.37" y1="1078.98" x2="467.37" y2="808.68"/><line class="cls-3" x1="437.7" y1="591.69" x2="437.7" y2="535.34"/><line class="cls-3" x1="437.7" y1="476.93" x2="437.7" y2="448.75"/><line class="cls-3" x1="437.7" y1="1078.98" x2="437.7" y2="897.24"/><line class="cls-3" x1="437.7" y1="869.75" x2="437.7" y2="622.31"/><line class="cls-3" x1="401.67" y1="933.65" x2="401.67" y2="779"/><line class="cls-3" x1="401.67" y1="525.91" x2="401.67" y2="497.74"/><line class="cls-3" x1="401.14" y1="677.15" x2="401.14" y2="561.39"/><line class="cls-3" x1="401.67" y1="1078.98" x2="401.67" y2="952.78"/><line class="cls-3" x1="372" y1="674.57" x2="372" y2="618.23"/><line class="cls-3" x1="372" y1="1078.98" x2="372" y2="1014.49"/><line class="cls-3" x1="372" y1="983.55" x2="372" y2="705.2"/><line class="cls-3" x1="342.49" y1="705.43" x2="342.49" y2="669.02"/><line class="cls-3" x1="342.49" y1="644.2" x2="342.49" y2="626"/><line class="cls-3" x1="342.49" y1="999.84" x2="342.49" y2="925.05"/><line class="cls-3" x1="342.49" y1="885.08" x2="342.49" y2="725.21"/><line class="cls-3" x1="342.49" y1="1078.98" x2="342.49" y2="1020.82"/><line class="cls-3" x1="219.04" y1="994.99" x2="219.04" y2="1078.98"/><line class="cls-3" x1="219.04" y1="883.79" x2="219.04" y2="958.58"/><line class="cls-3" x1="219.04" y1="665.13" x2="219.04" y2="825"/><line class="cls-3" x1="248.71" y1="1051.18" x2="248.71" y2="1078.98"/><line class="cls-3" x1="248.71" y1="756.77" x2="248.71" y2="831.56"/><line class="cls-3" x1="248.71" y1="871.52" x2="248.71" y2="1078.98"/><line class="cls-3" x1="248.71" y1="699.39" x2="248.71" y2="735.79"/><line class="cls-3" x1="284.74" y1="883.79" x2="284.74" y2="920.2"/><line class="cls-3" x1="285.27" y1="968.08" x2="285.27" y2="1078.98"/><line class="cls-3" x1="284.74" y1="704.93" x2="284.74" y2="864.8"/><line class="cls-3" x1="284.74" y1="643.2" x2="284.74" y2="679.6"/><line class="cls-3" x1="314.41" y1="975.31" x2="314.41" y2="1078.98"/><line class="cls-3" x1="314.41" y1="651.91" x2="314.41" y2="726.7"/><line class="cls-3" x1="314.41" y1="795.65" x2="314.41" y2="955.52"/><line class="cls-3" x1="180.37" y1="820.33" x2="180.37" y2="783.92"/><line class="cls-3" x1="180.37" y1="746.33" x2="180.37" y2="728.13"/><line class="cls-3" x1="180.37" y1="885.35" x2="180.37" y2="838.24"/><line class="cls-3" x1="180.37" y1="1078.98" x2="180.37" y2="904.34"/><line class="cls-3" x1="150.7" y1="764.14" x2="150.7" y2="727.73"/><line class="cls-3" x1="150.7" y1="702.91" x2="150.7" y2="684.71"/><line class="cls-3" x1="150.7" y1="1078.98" x2="150.7" y2="961.56"/><line class="cls-3" x1="150.7" y1="943.79" x2="150.7" y2="783.92"/><line class="cls-3" x1="114.67" y1="985.08" x2="114.67" y2="885.16"/><line class="cls-3" x1="114.67" y1="735.69" x2="114.67" y2="717.49"/><line class="cls-3" x1="114.14" y1="869.1" x2="114.14" y2="794.31"/><line class="cls-3" x1="114.67" y1="1078.98" x2="114.67" y2="997.44"/><line class="cls-3" x1="85" y1="781.99" x2="85" y2="745.58"/><line class="cls-3" x1="85" y1="1078.98" x2="85" y2="1037.31"/><line class="cls-3" x1="85" y1="1017.32" x2="85" y2="837.48"/><line class="cls-3" x1="55.16" y1="931.03" x2="55.16" y2="904.91"/><line class="cls-3" x1="55.16" y1="741.99" x2="55.16" y2="728.93"/><line class="cls-3" x1="54.63" y1="834.85" x2="54.63" y2="781.18"/><line class="cls-3" x1="55.16" y1="1078.98" x2="55.16" y2="944.66"/><line class="cls-3" x1="25.49" y1="810.91" x2="25.49" y2="784.79"/><line class="cls-3" x1="25.49" y1="731.28" x2="25.49" y2="718.21"/><line class="cls-3" x1="25.49" y1="1022.19" x2="25.49" y2="968.52"/><line class="cls-3" x1="25.49" y1="939.84" x2="25.49" y2="825.11"/><line class="cls-3" x1="25.49" y1="1078.98" x2="25.49" y2="1037.24"/><line class="cls-3" x1="-2.59" y1="1004.58" x2="-2.59" y2="1078.98"/><line class="cls-3" x1="-2.59" y1="772.51" x2="-2.59" y2="826.18"/><line class="cls-3" x1="-2.59" y1="875.66" x2="-2.59" y2="990.38"/></g></g></g></svg>